<svg xmlns="http://www.w3.org/2000/svg" xmlns:xlink="http://www.w3.org/1999/xlink" width="64" height="64" viewBox="0 0 64 64">
	<defs>
		<radialGradient id="a" cx="32" cy="32" r="32" gradientUnits="userSpaceOnUse">
			<stop offset="0" stop-color="#5c81fb"/>
			<stop offset="1" stop-color="#0c34b8"/>
		</radialGradient>
	</defs>
	<g>
		<path d="M7 7h50v50H7z" fill="#fff"/>
		<path d="M16.307 27.33l-1.932.517A11.008 11.008 0 0 0 25 36a11.01 11.01 0 0 0 10.625-8.153l-1.932-.517A8.99 8.99 0 0 1 25 34a8.99 8.99 0 0 1-8.693-6.67zM30 18c-1.645 0-3 1.355-3 3s1.355 3 3 3 3-1.355 3-3-1.355-3-3-3zm0 2c.564 0 1 .435 1 1 0 .564-.436 1-1 1-.564 0-1-.436-1-1 0-.565.436-1 1-1zm-10-2c-1.645 0-3 1.355-3 3s1.355 3 3 3 3-1.355 3-3-1.355-3-3-3zm0 2c.564 0 1 .435 1 1 0 .564-.436 1-1 1-.564 0-1-.436-1-1 0-.565.436-1 1-1zm21.12 16.878l-4.24 4.243 14 14 4.24-4.24zm-4.706-3.292l-2.828 2.828L52.12 54.95l2.83-2.83zM25 9.036A15.965 15.965 0 0 0 9.035 25 15.965 15.965 0 0 0 25 40.965 15.965 15.965 0 0 0 40.965 25 15.965 15.965 0 0 0 25 9.035zM25 11a14 14 0 0 1 14 14 14 14 0 0 1-14 14 14 14 0 0 1-14-14 14 14 0 0 1 14-14zM7 7v12.076a18.98 18.98 0 0 1 4-6.81V11h1.268a18.98 18.98 0 0 1 6.808-4zm23.924 0a18.98 18.98 0 0 1 6.808 4H53v33.515l4 4V7zM7 30.924V57h41.516l-4-4H11V37.732a18.98 18.98 0 0 1-4-6.808zm50 23.388L54.314 57H57z" fill="url(#a)"/>
	</g>
</svg>
