<svg xmlns="http://www.w3.org/2000/svg" xmlns:xlink="http://www.w3.org/1999/xlink" width="64" height="64" viewBox="0 0 64 64">
	<defs>
		<linearGradient id="a" x1="1.143" y1="48" x2="62.857" y2="12" gradientUnits="userSpaceOnUse">
			<stop stop-color="#0055a0" offset="0%"/>
			<stop stop-color="#004480" offset="100%"/>
		</linearGradient>
	</defs>
	<g>
		<path fill="none" stroke="#000" stroke-width="4.125" stroke-opacity=".398" d="M3 10.236h58v43.528H3z"/>
		<image xlink:href="../shrunked@darktrojan.net/pic.png" x="3" y="10.236" width="58" height="43.53"/>
		<path fill="none" stroke="#fff" stroke-width="3.094" d="M3 10.236h58v43.528H3z"/>
	</g>
	<g>
		<path d="M25 9.035A15.965 15.965 0 0 0 9.035 25 15.965 15.965 0 0 0 25 40.965a15.965 15.965 0 0 0 9.77-3.365l2.816 2.814-.705.707 14 14 .707-.703.533.533 2.83-2.83-.534-.534.703-.705-14-14-.707.705-2.805-2.805A15.965 15.965 0 0 0 40.964 25 15.965 15.965 0 0 0 25 9.035z" stroke="#fff" stroke-width="4" fill="#fff"/>
		<path d="M16.307 27.33l-1.932.517A11.008 11.008 0 0 0 25 36a11.01 11.01 0 0 0 10.625-8.153l-1.932-.517A8.99 8.99 0 0 1 25 34a8.99 8.99 0 0 1-8.693-6.67zM30 18c-1.645 0-3 1.355-3 3s1.355 3 3 3 3-1.355 3-3-1.355-3-3-3zm0 2c.564 0 1 .435 1 1 0 .564-.436 1-1 1-.564 0-1-.436-1-1 0-.565.436-1 1-1zm-10-2c-1.645 0-3 1.355-3 3s1.355 3 3 3 3-1.355 3-3-1.355-3-3-3zm0 2c.564 0 1 .435 1 1 0 .564-.436 1-1 1-.564 0-1-.436-1-1 0-.565.436-1 1-1zm21.12 16.878l-4.24 4.243 14 14 4.24-4.24zm-4.706-3.292l-2.828 2.828L52.12 54.95l2.83-2.83zM25 9.036A15.965 15.965 0 0 0 9.035 25 15.965 15.965 0 0 0 25 40.965 15.965 15.965 0 0 0 40.965 25 15.965 15.965 0 0 0 25 9.035zM25 11a14 14 0 0 1 14 14 14 14 0 0 1-14 14 14 14 0 0 1-14-14 14 14 0 0 1 14-14z" fill="url(#a)"/>
	</g>
</svg>
