<svg xmlns="http://www.w3.org/2000/svg" xmlns:xlink="http://www.w3.org/1999/xlink" width="64" height="64" viewBox="0 0 64 64">
	<g>
		<path d="M 15,15 V 16.818359 22 l 7,-7 z m 13,0 7,7 V 15 Z M 15,28 v 7 h 7 z m 20,0 -7,7 h 7 z M 25,11 A 14,14 0 0 1 39,25 14,14 0 0 1 25,39 14,14 0 0 1 11,25 14,14 0 0 1 25,11 Z M 25,9.036 A 15.965,15.965 0 0 0 9.035,25 15.965,15.965 0 0 0 25,40.965 15.965,15.965 0 0 0 40.965,25 15.965,15.965 0 0 0 25,9.035 Z m 11.414,24.55 -2.828,2.828 18.534,18.536 2.83,-2.83 z m 4.706,3.292 -4.24,4.243 14,14 4.24,-4.24 z" fill="#fff"/>
	</g>
</svg>
